<svg id="chevron-up" version="1.1" xmlns="http://www.w3.org/2000/svg" xmlns:xlink="http://www.w3.org/1999/xlink" x="0px" y="0px" viewBox="0 0 1000 1000" enable-background="new 0 0 1000 1000" xml:space="preserve">
<metadata> Svg Vector Icons : http://www.onlinewebfonts.com/icon </metadata>
<g><g transform="matrix(1 0 0 -1 0 1536)"><path d="M753.3,881l65.1,65.1c8.1,8.1,12.1,17.7,12.1,28.7c0,11.1-4,20.6-12.1,28.7l-289.7,289.7c-8.1,8.1-17.7,12.1-28.7,12.1c-11.1,0-20.6-4-28.7-12.1l-289.7-289.7c-8.1-8.1-12.1-17.7-12.1-28.7c0-11.1,4-20.6,12.1-28.7l65.1-65.1c8.1-8.1,17.7-12.1,28.7-12.1c11.1,0,20.6,4,28.7,12.1L500,1076.8L695.9,881c8.1-8.1,17.7-12.1,28.7-12.1C735.6,868.8,745.2,872.9,753.3,881z M990,1036c0-88.9-21.9-170.9-65.7-246C880.5,715,821,655.5,746,611.7C670.9,567.9,588.9,546,500,546s-170.9,21.9-246,65.7S119.5,715,75.7,790C31.9,865.1,10,947.1,10,1036c0,88.9,21.9,170.9,65.7,246C119.5,1357,179,1416.5,254,1460.3c75.1,43.8,157.1,65.7,246,65.7s170.9-21.9,246-65.7C821,1416.5,880.5,1357,924.3,1282S990,1124.9,990,1036z"/></g></g>
</svg>